<?xml version="1.0" standalone="no"?>
<!DOCTYPE svg PUBLIC "-//W3C//DTD SVG 20010904//EN"
 "http://www.w3.org/TR/2001/REC-SVG-20010904/DTD/svg10.dtd">
<svg version="1.0" xmlns="http://www.w3.org/2000/svg"
 width="514.000000pt" height="514.000000pt" viewBox="0 0 514.000000 514.000000"
 preserveAspectRatio="xMidYMid meet">
<metadata>
Created by potrace 1.14, written by Peter Selinger 2001-2017
</metadata>
<g transform="translate(0.000000,514.000000) scale(0.100000,-0.100000)"
fill="#000000" stroke="none">
<path d="M2478 5035 c-2 -1 -64 -5 -140 -9 -75 -3 -142 -8 -150 -10 -7 -3 -39
-7 -70 -10 -31 -3 -92 -13 -135 -22 -43 -9 -88 -18 -100 -20 -34 -6 -304 -94
-343 -112 -354 -158 -575 -302 -808 -527 l-64 -62 194 1 c220 0 347 -8 513
-34 63 -10 79 -13 161 -30 28 -6 61 -13 75 -15 68 -12 320 -93 444 -141 77
-30 159 -63 183 -72 29 -11 47 -13 56 -7 113 84 225 134 331 150 81 12 77 7
70 103 -3 48 -8 103 -10 122 -2 19 -7 62 -10 95 -3 33 -7 69 -9 81 -2 12 -7
45 -11 75 -8 72 -13 102 -40 259 -10 52 -18 102 -20 110 -2 8 -4 22 -4 30 -2
31 -20 44 -65 46 -24 1 -46 1 -48 -1z"/>
<path d="M2757 5024 c-2 -2 2 -32 9 -66 8 -35 16 -79 19 -98 3 -20 8 -47 10
-60 3 -14 8 -45 11 -70 3 -25 7 -52 9 -60 5 -17 15 -92 29 -217 8 -63 16 -163
21 -246 3 -43 7 -82 10 -87 3 -5 20 -12 38 -15 98 -21 233 -93 315 -168 31
-30 47 -38 57 -31 339 234 585 366 878 469 42 15 77 29 77 30 0 6 -201 156
-265 198 -324 209 -689 348 -1050 402 -153 22 -163 24 -168 19z"/>
<path d="M4235 4226 c-162 -58 -226 -86 -388 -169 -127 -64 -314 -179 -429
-263 l-47 -35 23 -52 c30 -67 52 -170 55 -257 1 -19 21 -40 89 -92 206 -157
418 -405 577 -678 180 -310 344 -785 400 -1158 3 -21 7 -47 9 -58 2 -11 7 -47
11 -79 4 -33 8 -71 10 -85 4 -30 17 -195 20 -265 2 -27 3 -52 4 -55 3 -14 124
145 216 284 154 235 281 588 330 916 20 135 26 417 11 560 -48 470 -236 927
-534 1300 -95 119 -203 230 -222 229 -8 0 -69 -20 -135 -43z"/>
<path d="M807 4104 c-1 -1 -46 -5 -100 -8 -122 -8 -177 -16 -198 -27 -51 -27
-233 -329 -313 -521 -132 -316 -185 -587 -186 -938 0 -133 3 -166 14 -163 3 2
38 42 77 90 85 106 218 245 319 333 41 36 77 68 80 71 27 30 303 223 395 275
358 202 743 336 1120 389 70 10 71 12 109 110 20 52 36 99 36 104 0 11 -212
95 -350 139 -236 76 -474 123 -698 138 -79 5 -301 11 -305 8z"/>
<path d="M1945 3429 c-347 -62 -704 -197 -1010 -384 -332 -202 -630 -484 -829
-783 -50 -76 -53 -93 -32 -177 97 -389 247 -697 484 -995 138 -173 388 -406
552 -515 25 -17 47 -32 50 -35 9 -9 89 -60 95 -60 2 0 28 -15 57 -33 29 -18
97 -55 151 -81 172 -82 279 -120 598 -212 13 -4 15 9 12 93 -8 302 -4 591 12
798 2 28 6 100 10 160 3 61 8 121 10 135 2 14 6 59 10 100 4 41 8 89 10 105 2
17 7 57 11 90 3 33 8 69 10 79 2 11 6 42 9 70 3 28 7 58 10 66 2 8 6 38 10 65
3 28 13 88 21 135 8 47 17 100 19 117 3 18 9 52 14 75 6 24 13 59 16 78 7 42
41 191 55 240 39 140 90 318 96 333 4 12 -4 25 -27 44 -174 146 -241 249 -285
443 -8 39 -19 70 -22 69 -4 0 -56 -9 -117 -20z"/>
<path d="M3381 3181 c-138 -273 -446 -414 -759 -348 l-62 14 -19 -66 c-39
-130 -128 -494 -145 -586 -2 -11 -7 -40 -12 -65 -4 -25 -8 -47 -9 -50 -3 -13
-16 -88 -20 -115 -2 -16 -6 -43 -9 -60 -5 -30 -12 -77 -22 -150 -4 -22 -8 -47
-9 -55 -2 -8 -6 -42 -9 -75 -4 -33 -9 -71 -11 -85 -2 -14 -6 -56 -10 -95 -4
-38 -8 -77 -10 -85 -2 -8 -6 -64 -10 -125 -4 -60 -9 -126 -12 -145 -5 -43 -10
-798 -5 -896 l4 -72 41 -6 c165 -27 562 -27 699 -1 12 3 40 7 63 10 82 12 268
57 376 91 168 54 324 122 504 223 106 60 291 193 397 287 63 56 67 67 63 189
-5 152 -15 338 -20 366 -2 13 -6 51 -10 84 -12 106 -14 124 -40 257 -12 63
-16 85 -27 123 -5 22 -12 50 -14 63 -8 42 -76 257 -111 352 -59 158 -133 314
-219 465 -130 226 -308 439 -479 574 l-61 48 -33 -66z"/>
</g>
</svg>
