<?xml version="1.0" encoding="UTF-8" standalone="no"?>
<!DOCTYPE svg PUBLIC "-//W3C//DTD SVG 1.1//EN" "http://www.w3.org/Graphics/SVG/1.1/DTD/svg11.dtd">
<svg width="100%" height="100%" viewBox="0 0 218 228" version="1.1" xmlns="http://www.w3.org/2000/svg" xmlns:xlink="http://www.w3.org/1999/xlink" xml:space="preserve" xmlns:serif="http://www.serif.com/" style="fill-rule:evenodd;clip-rule:evenodd;stroke-linejoin:round;stroke-miterlimit:2;">
    <g id="Layer_2">
        <g id="new_ball">
            <g opacity="0.2">
                <g>
                    <path d="M133.85,116.54C136.85,121.54 146.45,121.24 155.2,115.91C163.95,110.58 168.57,102.2 165.53,97.22C162.49,92.24 152.93,92.51 144.18,97.84C135.43,103.17 130.8,111.55 133.85,116.54Z" style="fill:white;fill-rule:nonzero;"/>
                </g>
            </g>
            <g opacity="0.2">
                <g>
                    <path d="M133.85,116.54C136.85,121.54 146.45,121.24 155.2,115.91C163.95,110.58 168.57,102.2 165.53,97.22C162.49,92.24 152.93,92.51 144.18,97.84C135.43,103.17 130.8,111.55 133.85,116.54Z" style="fill:white;fill-rule:nonzero;"/>
                </g>
            </g>
            <path d="M53.52,163.84L53.53,163.84L53.52,163.84Z" style="fill:url(#_Linear1);fill-rule:nonzero;"/>
            <g opacity="0.2">
                <g>
                    <path d="M118.23,126.23C124.16,135.96 142.81,135.41 159.87,125.01C176.93,114.61 186,98.27 180,88.54C174,78.81 155.43,79.36 138.36,89.77C121.29,100.18 112.3,116.5 118.23,126.23Z" style="fill:white;fill-rule:nonzero;"/>
                </g>
            </g>
            <g opacity="0.2">
                <g>
                    <path d="M133.82,118.56C136.82,123.56 146.4,123.25 155.13,117.93C163.86,112.61 168.48,104.25 165.45,99.27C162.42,94.29 152.87,94.57 144.14,99.9C135.41,105.23 130.79,113.58 133.82,118.56Z" style="fill:white;fill-rule:nonzero;"/>
                </g>
            </g>
            <g opacity="0.2">
                <g>
                    <path d="M133.82,118.56C136.82,123.56 146.4,123.25 155.13,117.93C163.86,112.61 168.48,104.25 165.45,99.27C162.42,94.29 152.87,94.57 144.14,99.9C135.41,105.23 130.79,113.58 133.82,118.56Z" style="fill:white;fill-rule:nonzero;"/>
                </g>
            </g>
            <g opacity="0.2">
                <g>
                    <path d="M133.82,118.56C136.82,123.56 146.4,123.25 155.13,117.93C163.86,112.61 168.48,104.25 165.45,99.27C162.42,94.29 152.87,94.57 144.14,99.9C135.41,105.23 130.79,113.58 133.82,118.56Z" style="fill:white;fill-rule:nonzero;"/>
                </g>
            </g>
            <g opacity="0.6">
                <g>
                    <path d="M62.89,130.84C69.59,130.23 74.15,120.21 73.08,108.45C72.01,96.69 65.71,87.67 59,88.28C52.29,88.89 47.74,98.91 48.81,110.67C49.88,122.43 56.18,131.46 62.89,130.84Z" style="fill:white;fill-rule:nonzero;"/>
                </g>
            </g>
            <path d="M190,114.89C187.068,109.279 183.365,104.106 179,99.52C169.3,89.46 157,82.85 150.23,79.71C150.23,79.53 150.29,79.36 150.31,79.19C150.37,78.81 150.41,78.43 150.44,78.05L150.44,74.68C150.44,74.4 150.38,74.12 150.34,73.76L150.34,73.57C150.34,73.28 150.25,73 150.2,72.71L150.2,72.46C150.14,72.18 150.08,71.89 149.99,71.51L149.99,71.37C149.92,71.08 149.84,70.8 149.76,70.52L149.69,70.27C149.6,70 149.51,69.73 149.39,69.39L149.32,69.18L149.02,68.42L148.88,68.09C148.78,67.86 148.67,67.62 148.56,67.39L148.38,67.01C148.27,66.8 148.17,66.59 148.05,66.38L147.81,65.94C147.7,65.75 147.6,65.57 147.48,65.38L147.18,64.89L146.85,64.39C146.73,64.21 146.61,64.03 146.45,63.82C146.29,63.61 146.26,63.54 146.16,63.41C146.06,63.28 145.89,63.06 145.75,62.88C148.619,61.452 151.638,60.346 154.75,59.58C156.649,59.109 158.594,58.85 160.55,58.81L161,58.81C158.541,56.862 155.966,55.066 153.29,53.43L153.15,53.43C148.86,54.481 144.727,56.095 140.86,58.23C136.697,55.079 131.793,53.051 126.62,52.34C125.09,52.114 123.546,52.001 122,52C121.06,52 120.08,52.06 118.95,52.17C117.779,49.46 116.388,46.852 114.79,44.37C114.354,43.675 113.876,43.007 113.36,42.37C110.398,42.384 107.44,42.571 104.5,42.93L105.01,43.24C106.828,44.369 108.359,45.907 109.48,47.73C110.657,49.561 111.709,51.468 112.63,53.44C110.396,54.161 108.264,55.169 106.29,56.44C105.68,56.83 105.07,57.27 104.47,57.74L104.1,58.05C103.63,58.43 103.18,58.82 102.75,59.23L102.31,59.66C101.91,60.06 101.53,60.48 101.16,60.9L100.78,61.36C100.42,61.8 100.07,62.27 99.78,62.76L99.5,63.18C99.19,63.65 98.89,64.18 98.59,64.72C94.944,64.236 91.268,64.002 87.59,64.02C81.515,64.042 75.452,64.554 69.46,65.55C64.454,66.387 59.585,67.904 54.99,70.06C51.886,73.811 49.147,77.849 46.81,82.12L47.65,81.53C52.79,77.93 60.92,73.31 70.46,71.76C76.123,70.829 81.851,70.348 87.59,70.32C90.57,70.309 93.548,70.47 96.51,70.8C96.51,71.01 96.42,71.22 96.39,71.43C95.572,77.686 97.553,83.995 101.8,88.66C88.9,102 66.14,127.2 55.46,149.7C53.55,153.72 52.1,157.944 51.14,162.29C52.767,164.623 54.523,166.863 56.4,169L56.45,168.58C57.102,162.961 58.694,157.491 61.16,152.4C71.84,129.88 96.16,103.54 106.41,92.92C106.83,93.22 107.26,93.51 107.69,93.79L108.05,94.01L108.27,94.14C108.75,94.433 109.24,94.713 109.74,94.98L110.34,95.29C111.01,95.63 111.63,95.92 112.34,96.21L112.44,96.21C113.15,96.51 113.89,96.77 114.7,97.04L115.17,97.18C115.78,97.37 116.4,97.53 117.03,97.68L117.64,97.83C118.5,98.02 119.27,98.16 120.01,98.27C120.75,98.38 121.53,98.46 122.38,98.52C123.23,98.58 123.82,98.59 124.53,98.59C125.24,98.59 126.14,98.59 126.92,98.5C127.51,98.5 128.09,98.39 128.67,98.31C131.11,109.99 136.47,138.09 136.17,157.45C135.87,176.81 135,186 130.51,192.79L130.24,193.2C133.049,192.585 135.821,191.807 138.54,190.87C141.82,182.67 142.23,172.32 142.46,157.59C142.77,137.53 137.28,108.79 134.79,96.87C140.482,94.963 145.248,90.976 148.13,85.71C154.36,88.71 165.62,94.79 174.39,103.89C180.962,110.925 185.945,119.291 189,128.42L189.31,129.34C189.811,125.815 190.065,122.26 190.07,118.7C190.07,117.42 190,116.15 190,114.89ZM144.13,76.82C144.114,77.319 144.07,77.816 144,78.31C143.94,78.74 143.85,79.17 143.75,79.58C143.7,79.78 143.64,79.97 143.59,80.16C141.99,85.68 137.09,89.96 130.48,91.61L130.35,91.61C129.61,91.79 128.84,91.94 128.04,92.06C127.42,92.15 126.73,92.21 125.95,92.25L123.07,92.25C122.26,92.25 121.54,92.14 120.89,92.04C120.24,91.94 119.69,91.84 118.98,91.69C118.747,91.643 118.517,91.583 118.29,91.51L117.99,91.43C117.72,91.37 117.44,91.29 117.18,91.22C116.92,91.15 116.4,90.97 116.01,90.83L115.46,90.63C115.03,90.47 114.61,90.3 114.2,90.11L113.83,89.94C113.39,89.74 112.95,89.52 112.53,89.29L112.29,89.16C111.84,88.91 111.4,88.65 110.94,88.35C110.053,87.774 109.211,87.132 108.42,86.43L108.07,86.12C107.614,85.706 107.18,85.269 106.77,84.81C103.564,81.493 102.023,76.899 102.58,72.32C102.716,71.367 102.954,70.432 103.29,69.53L103.37,69.32C103.411,69.211 103.457,69.104 103.51,69L103.64,68.7L103.82,68.28C103.93,68.05 104.05,67.82 104.18,67.6L104.42,67.16L104.83,66.49L105.06,66.17C105.35,65.77 105.66,65.37 106.06,64.96C106.15,64.85 106.24,64.74 106.34,64.64C106.52,64.43 106.71,64.23 106.91,64.04L107.23,63.73C107.73,63.27 108.23,62.86 108.71,62.48C108.97,62.28 109.24,62.09 109.52,61.91L109.77,61.74C112.11,60.256 114.714,59.237 117.44,58.74C118.943,58.453 120.47,58.305 122,58.3C123.225,58.301 124.448,58.391 125.66,58.57C130.371,59.185 134.79,61.203 138.34,64.36L138.61,64.62C138.97,64.95 139.31,65.29 139.61,65.62L139.8,65.82C140.15,66.22 140.47,66.62 140.8,67.02L141.01,67.31C141.3,67.71 141.57,68.11 141.82,68.52L142.02,68.86C142.26,69.27 142.47,69.68 142.67,70.1L142.82,70.44C143.001,70.838 143.162,71.245 143.3,71.66L143.39,71.93C143.52,72.33 143.63,72.73 143.72,73.14L143.81,73.51C143.89,73.94 143.96,74.38 144.01,74.82L144.01,75.18C144.034,75.63 144.034,76.08 144.01,76.53L144.13,76.82Z" style="fill:white;fill-rule:nonzero;"/>
            <path d="M53.66,165.76L53.66,165.77L53.66,165.76Z" style="fill:url(#_Linear2);fill-rule:nonzero;"/>
            <path d="M160.39,58.78C158.434,58.82 156.489,59.079 154.59,59.55C151.478,60.316 148.459,61.422 145.59,62.85C145.73,63.03 145.87,63.2 146,63.38C146.13,63.56 146.2,63.65 146.29,63.79C146.38,63.93 146.57,64.18 146.69,64.36L147.02,64.86L147.32,65.35C147.44,65.54 147.54,65.72 147.65,65.91L147.89,66.35C148.01,66.56 148.11,66.77 148.22,66.98L148.4,67.36C148.51,67.59 148.62,67.83 148.72,68.06L148.86,68.39L149.16,69.15L149.23,69.36C149.35,69.7 149.44,69.97 149.53,70.24L149.6,70.49C149.68,70.77 149.76,71.05 149.83,71.34L149.83,71.48C149.92,71.86 149.98,72.15 150.04,72.43L150.04,72.68C150.04,72.97 150.14,73.25 150.18,73.54L150.18,73.73C150.18,74.09 150.26,74.37 150.28,74.65L150.28,78.02C150.28,78.4 150.21,78.78 150.15,79.16C150.15,79.33 150.1,79.5 150.07,79.68C156.8,82.82 169.14,89.43 178.84,99.49C183.271,104.109 187.029,109.331 190,115C188.936,92.961 178.346,72.437 161,58.8L160.39,58.78Z" style="fill:rgb(234,234,234);fill-rule:nonzero;"/>
            <path d="M69.41,65.57C75.401,64.56 81.464,64.035 87.54,64C91.218,63.982 94.894,64.216 98.54,64.7C98.84,64.14 99.14,63.63 99.45,63.16L99.73,62.74C100.07,62.25 100.42,61.74 100.73,61.34L101.11,60.88C101.48,60.46 101.86,60.04 102.26,59.64L102.7,59.21C103.13,58.8 103.58,58.41 104.05,58.03L104.42,57.72C105.02,57.25 105.63,56.81 106.24,56.42C108.214,55.149 110.346,54.141 112.58,53.42C111.659,51.448 110.607,49.541 109.43,47.71C108.309,45.887 106.778,44.349 104.96,43.22L104.4,42.88C85.023,45.277 67.288,55.026 54.88,70.1C59.497,67.942 64.385,66.418 69.41,65.57Z" style="fill:rgb(234,234,234);fill-rule:nonzero;"/>
            <path d="M130.51,192.79C135,186.03 135.85,176.84 136.16,157.49C136.47,138.14 131.1,110.03 128.66,98.35C128.08,98.43 127.5,98.5 126.91,98.54C126.13,98.6 125.32,98.63 124.52,98.63C123.72,98.63 123.12,98.63 122.37,98.56C121.62,98.49 120.75,98.42 120,98.31C119.25,98.2 118.49,98.06 117.63,97.87L117.02,97.72C116.39,97.57 115.77,97.41 115.16,97.22L114.69,97.08C113.88,96.81 113.14,96.55 112.43,96.25L112.33,96.25C111.63,95.96 111.01,95.67 110.33,95.33L109.73,95.02C109.23,94.747 108.74,94.467 108.26,94.18L108.04,94.05L107.68,93.83C107.25,93.55 106.82,93.26 106.4,92.96C96.11,103.58 71.83,129.96 61.15,152.44C58.684,157.531 57.092,163.001 56.44,168.62L56.39,169.09C74.694,190.021 103.07,199.315 130.21,193.27L130.51,192.79Z" style="fill:rgb(234,234,234);fill-rule:nonzero;"/>
            <path d="M114.83,44.37C116.428,46.852 117.819,49.46 118.99,52.17C120.12,52.06 121.1,52 122.04,52C123.563,52.001 125.083,52.111 126.59,52.33C131.763,53.041 136.667,55.069 140.83,58.22C144.697,56.085 148.83,54.471 153.12,53.42L153.29,53.42C141.372,46.199 127.695,42.393 113.76,42.42L113.36,42.42C113.889,43.039 114.38,43.691 114.83,44.37ZM143.83,73.54L143.74,73.17C143.65,72.76 143.54,72.36 143.41,71.96L143.32,71.69C143.182,71.275 143.021,70.868 142.84,70.47L142.69,70.13C142.49,69.71 142.28,69.3 142.04,68.89L141.84,68.55C141.59,68.14 141.32,67.74 141.03,67.34L140.82,67.05C140.51,66.65 140.19,66.25 139.82,65.85L139.63,65.65C139.3,65.29 138.96,64.95 138.63,64.65L138.36,64.39C134.81,61.233 130.391,59.215 125.68,58.6C124.462,58.41 123.232,58.31 122,58.3C120.439,58.303 118.882,58.454 117.35,58.75C114.624,59.247 112.02,60.266 109.68,61.75L109.43,61.92C109.15,62.1 108.88,62.29 108.62,62.49C108.12,62.87 107.62,63.28 107.14,63.74L106.82,64.05C106.62,64.24 106.43,64.44 106.25,64.65C106.15,64.75 106.06,64.86 105.97,64.97C105.62,65.38 105.31,65.78 104.97,66.18L104.74,66.5L104.33,67.17L104.09,67.61C103.96,67.83 103.84,68.06 103.73,68.29L103.55,68.71L103.42,69.01C103.367,69.114 103.321,69.221 103.28,69.33L103.2,69.54C102.864,70.442 102.626,71.377 102.49,72.33C101.933,76.909 103.474,81.503 106.68,84.82C107.09,85.279 107.524,85.716 107.98,86.13L108.33,86.44C109.121,87.142 109.963,87.784 110.85,88.36C111.31,88.66 111.75,88.92 112.2,89.17L112.44,89.3C112.86,89.53 113.3,89.75 113.74,89.95L114.11,90.12C114.52,90.31 114.94,90.48 115.37,90.64L115.92,90.84C116.31,90.98 116.69,91.11 117.09,91.23C117.49,91.35 117.63,91.38 117.9,91.44L118.2,91.52C118.427,91.587 118.657,91.647 118.89,91.7C119.6,91.85 120.22,91.97 120.8,92.05C121.38,92.13 122.17,92.21 122.98,92.26L125.86,92.26C126.64,92.26 127.33,92.16 127.95,92.07C128.75,91.95 129.52,91.8 130.26,91.62L130.39,91.62C137.09,90 142,85.68 143.59,80.16C143.59,79.97 143.7,79.78 143.75,79.58C143.85,79.17 143.94,78.74 144,78.31C144.07,77.816 144.114,77.319 144.13,76.82L144.13,76.56C144.154,76.11 144.154,75.66 144.13,75.21L144.13,74.85C144,74.41 143.94,74 143.86,73.54L143.83,73.54ZM189,128.42C185.945,119.291 180.962,110.925 174.39,103.89C165.62,94.79 154.39,88.67 148.13,85.71C145.248,90.976 140.482,94.963 134.79,96.87C137.28,108.79 142.79,137.53 142.46,157.59C142.23,172.35 141.82,182.7 138.53,190.91C165.637,181.592 185.307,157.77 189.33,129.39L189,128.42ZM55.46,149.7C66.14,127.2 88.9,101.95 101.75,88.7C97.503,84.035 95.522,77.726 96.34,71.47C96.34,71.26 96.42,71.05 96.46,70.84C93.498,70.51 90.52,70.349 87.54,70.36C81.801,70.388 76.073,70.869 70.41,71.8C60.87,73.33 52.74,78 47.6,81.55L46.68,82.19C32.881,107.546 34.609,138.648 51.13,162.32C52.091,157.963 53.544,153.729 55.46,149.7Z" style="fill:rgb(234,234,234);fill-rule:nonzero;"/>
        </g>
    </g>
    <defs>
        <linearGradient id="_Linear1" x1="0" y1="0" x2="1" y2="0" gradientUnits="userSpaceOnUse" gradientTransform="matrix(6.12323e-19,-0.01,0.01,6.12323e-19,53.53,163.84)"><stop offset="0" style="stop-color:rgb(29,101,79);stop-opacity:1"/><stop offset="1" style="stop-color:rgb(57,181,74);stop-opacity:1"/></linearGradient>
        <linearGradient id="_Linear2" x1="0" y1="0" x2="1" y2="0" gradientUnits="userSpaceOnUse" gradientTransform="matrix(2e-06,0,0,2e-06,53.66,164.102)"><stop offset="0" style="stop-color:rgb(29,101,79);stop-opacity:1"/><stop offset="1" style="stop-color:rgb(57,181,74);stop-opacity:1"/></linearGradient>
    </defs>
</svg>
