<?xml version="1.0" encoding="UTF-8" standalone="no"?>
<!DOCTYPE svg PUBLIC "-//W3C//DTD SVG 1.1//EN" "http://www.w3.org/Graphics/SVG/1.1/DTD/svg11.dtd">
<svg width="100%" height="100%" viewBox="0 0 1414 1116" version="1.1" xmlns="http://www.w3.org/2000/svg" xmlns:xlink="http://www.w3.org/1999/xlink" xml:space="preserve" xmlns:serif="http://www.serif.com/" style="fill-rule:evenodd;clip-rule:evenodd;stroke-linejoin:round;stroke-miterlimit:2;">
    <g transform="matrix(4.16667,0,0,4.16667,1108.21,954.275)">
        <path d="M0,-146.246C-2.731,-146.246 -5.429,-146.096 -8.082,-145.806C-1.682,-130.171 1.845,-113.057 1.845,-95.118C1.845,-75.831 -2.234,-57.494 -9.574,-40.928C3.713,-32.407 11.378,-16.541 8.678,0C45.112,-4.294 73.377,-35.281 73.377,-72.869C73.377,-113.394 40.525,-146.246 0,-146.246" style="fill:rgb(255,218,26);fill-rule:nonzero;"/>
    </g>
    <g transform="matrix(4.16667,0,0,4.16667,557.942,1115.89)">
        <path d="M0,-267.814C-73.956,-267.814 -133.906,-207.861 -133.906,-133.906C-133.906,-59.952 -73.956,0 0,0C25.305,0 48.97,-7.019 69.156,-19.217C61.791,-28.052 58.186,-39.932 60.257,-52.164C61.584,-60.013 65.07,-66.953 70.006,-72.486C62.836,-83.821 58.687,-97.254 58.687,-111.657C58.687,-149.452 87.26,-180.571 123.982,-184.594C104,-233.418 56.016,-267.814 0,-267.814" style="fill:rgb(31,196,244);fill-rule:nonzero;"/>
    </g>
    <g transform="matrix(4.16667,0,0,4.16667,1074.53,813.867)">
        <path d="M0,-112.108C-36.722,-108.086 -65.295,-76.966 -65.295,-39.171C-65.295,-24.769 -61.145,-11.335 -53.975,0C-46.391,-8.501 -35.391,-13.671 -23.553,-13.671C-21.294,-13.671 -18.999,-13.482 -16.695,-13.091C-11.108,-12.145 -5.979,-10.106 -1.492,-7.23C5.848,-23.796 9.927,-42.134 9.927,-61.421C9.927,-79.359 6.4,-96.473 0,-112.108" style="fill:rgb(104,170,75);fill-rule:nonzero;"/>
    </g>
    <g transform="matrix(4.16667,0,0,4.16667,976.653,1096.92)">
        <path d="M0,-40.848C-9.026,-30.608 -19.59,-21.76 -31.335,-14.664C-25.323,-7.451 -16.804,-2.268 -6.822,-0.578C-4.518,-0.188 -2.227,0 0.034,0C19.575,0 36.842,-14.082 40.209,-33.992C40.223,-34.074 40.236,-34.153 40.251,-34.235C37.404,-33.9 34.509,-33.727 31.573,-33.727C20.269,-33.727 9.565,-36.283 0,-40.848" style="fill:rgb(247,147,29);fill-rule:nonzero;"/>
    </g>
    <g transform="matrix(-4.0597,0.938038,0.938038,4.0597,1083.44,954.665)">
        <path d="M-5.698,-40.785C2.561,-29.788 12.426,-20.205 23.462,-12.305C15.17,-5.704 5.316,-0.803 -5.698,1.741C-8.558,2.402 -11.418,2.886 -14.267,3.2C-20.622,-12.307 -16.725,-29.492 -5.698,-40.785" style="fill:rgb(246,137,30);fill-rule:nonzero;"/>
    </g>
    <g transform="matrix(-4.16614,-0.0665562,-0.0665562,4.16614,925.62,1036.43)">
        <path d="M19.087,-53.117C23.934,-47.506 27.309,-40.511 28.51,-32.641C30.387,-20.379 26.592,-8.557 19.087,0.159C7.456,-7.123 -2.964,-16.139 -11.825,-26.523C0.805,-32.307 11.528,-41.576 19.087,-53.117" style="fill:rgb(117,121,62);fill-rule:nonzero;"/>
    </g>
    <g transform="matrix(4.16667,0,0,4.16667,976.394,926.721)">
        <path d="M0,-40.756C-11.838,-40.756 -22.838,-35.586 -30.422,-27.085C-23.048,-15.425 -12.474,-5.986 0.062,0C9.036,-10.182 16.49,-21.74 22.061,-34.314C17.574,-37.191 12.445,-39.23 6.858,-40.175C4.555,-40.566 2.26,-40.756 0,-40.756" style="fill:rgb(118,114,61);fill-rule:nonzero;"/>
    </g>
    <g transform="matrix(4.16667,0,0,4.16667,140.5,323.904)">
        <path d="M0,38.392L5.805,38.392L14.708,-0.001L8.131,-0.001L9.522,-6.271L29.803,-6.271L28.332,-0.001L21.753,-0.001L12.773,38.469L28.642,38.469L30.423,30.961L37.158,30.961L33.984,44.663L-1.469,44.663L0,38.392Z" style="fill:white;fill-rule:nonzero;"/>
    </g>
    <g transform="matrix(4.16667,0,0,4.16667,332.737,493.55)">
        <path d="M0,-39.554C0,-42.031 2.012,-44.045 4.491,-44.045C6.889,-44.045 8.979,-42.031 8.979,-39.554C8.979,-37.077 6.889,-35.064 4.491,-35.064C2.012,-35.064 0,-37.077 0,-39.554M-6.502,-2.246C-6.502,-3.249 -6.269,-4.721 -5.96,-5.882L-1.315,-23.686L-7.585,-23.686L-6.114,-29.414L6.968,-29.414L0.775,-5.806C0.388,-4.488 0.232,-3.172 0.232,-2.399C0.232,-0.928 1.007,-0.076 2.245,-0.076C3.792,-0.076 5.189,-1.237 6.813,-5.495L9.83,-4.411C7.82,2.246 4.567,4.491 0.465,4.491C-4.027,4.491 -6.502,1.782 -6.502,-2.246" style="fill:white;fill-rule:nonzero;"/>
    </g>
    <g transform="matrix(4.16667,0,0,4.16667,395.627,487.427)">
        <path d="M0,-22.216L-5.803,-22.216L-4.334,-27.944L5.885,-27.944L9.754,-1.394C15.712,-7.819 20.051,-14.398 21.365,-19.506C19.663,-20.127 18.115,-21.597 18.115,-23.918C18.115,-26.473 20.129,-28.564 22.76,-28.564C25.7,-28.564 27.866,-26.318 27.866,-22.604C27.866,-15.559 20.593,-4.412 9.754,6.348L5.341,6.348L0,-22.216Z" style="fill:white;fill-rule:nonzero;"/>
    </g>
    <g transform="matrix(4.16667,0,0,4.16667,555.285,493.55)">
        <path d="M0,-39.554C0,-42.031 2.014,-44.045 4.488,-44.045C6.891,-44.045 8.979,-42.031 8.979,-39.554C8.979,-37.077 6.891,-35.064 4.488,-35.064C2.014,-35.064 0,-37.077 0,-39.554M-6.501,-2.246C-6.501,-3.249 -6.271,-4.721 -5.961,-5.882L-1.316,-23.686L-7.583,-23.686L-6.117,-29.414L6.966,-29.414L0.774,-5.806C0.388,-4.488 0.232,-3.172 0.232,-2.399C0.232,-0.928 1.008,-0.076 2.247,-0.076C3.794,-0.076 5.186,-1.237 6.812,-5.495L9.832,-4.411C7.821,2.246 4.569,4.491 0.465,4.491C-4.025,4.491 -6.501,1.782 -6.501,-2.246" style="fill:white;fill-rule:nonzero;"/>
    </g>
    <g transform="matrix(4.16667,0,0,4.16667,692.038,396.481)">
        <path d="M0,21.129C0,20.047 0.234,18.576 0.544,17.336L3.406,7.275C3.794,5.959 3.949,4.952 3.949,3.868C3.949,0.926 1.935,-1.008 -1.083,-1.008C-5.187,-1.008 -9.056,2.475 -10.76,9.133L-15.249,27.244L-22.062,27.244L-15.093,-0.389L-21.287,-0.389L-19.817,-6.117L-7.893,-6.117L-9.677,1.7C-7.044,-2.945 -2.708,-6.659 1.858,-6.659C6.965,-6.659 10.916,-3.176 10.916,2.786C10.916,4.411 10.605,6.268 10.064,8.203L7.2,18.033C6.965,19.041 6.734,20.124 6.734,20.743C6.734,22.292 7.51,23.221 8.825,23.221C10.14,23.221 11.612,22.059 13.158,17.802L16.179,18.885C14.4,24.923 11.225,27.788 7.122,27.788C2.555,27.788 0,24.999 0,21.129" style="fill:white;fill-rule:nonzero;"/>
    </g>
    <g transform="matrix(4.16667,0,0,4.16667,870.409,516.453)">
        <path d="M0,-21.597C0,-26.55 -3.251,-29.571 -8.053,-29.571C-14.553,-29.571 -19.506,-23.376 -19.506,-15.791C-19.506,-10.837 -16.255,-7.743 -11.613,-7.743C-4.955,-7.743 0,-14.398 0,-21.597M-27.016,10.061C-28.487,8.594 -28.951,7.355 -28.951,5.729C-28.951,3.019 -27.095,1.161 -24.693,1.161C-22.293,1.161 -20.591,3.097 -20.591,5.342C-20.591,6.037 -20.747,6.812 -21.056,7.355C-20.049,7.973 -18.036,8.594 -15.483,8.594C-12.309,8.594 -10.062,7.742 -8.13,5.805C-6.348,4.103 -5.266,1.393 -4.414,-2.245L-2.942,-8.515C-5.807,-4.489 -9.832,-1.935 -14.397,-1.935C-21.909,-1.935 -26.553,-7.278 -26.553,-15.326C-26.553,-26.163 -19.043,-35.53 -8.903,-35.53C-3.173,-35.53 0.231,-31.661 1.392,-27.945L3.482,-35.065L9.751,-35.065L1.779,-0.697C0.774,3.794 -0.621,7.122 -3.096,9.676C-6.039,12.542 -9.909,13.933 -15.329,13.933C-19.971,13.933 -25.003,12.076 -27.016,10.061" style="fill:white;fill-rule:nonzero;"/>
    </g>
    <g transform="matrix(4.16667,0,0,4.16667,318.544,728.93)">
        <path d="M0,-39.016L-5.495,-39.016L-4.025,-45.286L14.708,-45.286L13.314,-39.016L6.891,-39.016L8.438,-6.969L27.325,-39.712L30.654,-39.712L36.304,-6.816L51.942,-39.016L45.749,-39.016L47.14,-45.286L65.95,-45.286L64.48,-39.016L59.604,-39.016L36.459,6.19L32.665,6.19L26.552,-26.243L6.968,6.19L3.25,6.27L0,-39.016Z" style="fill:white;fill-rule:nonzero;"/>
    </g>
    <g transform="matrix(4.16667,0,0,4.16667,644.305,696.034)">
        <path d="M0,-6.273C0,-11.226 -2.477,-14.479 -7.583,-14.479C-14.087,-14.479 -18.962,-7.434 -18.962,0.074C-18.962,4.95 -16.565,8.358 -11.918,8.358C-5.108,8.358 0,1.005 0,-6.273M-26.006,0.85C-26.006,-10.53 -18.113,-20.438 -8.436,-20.438C-3.405,-20.438 0.388,-16.799 1.551,-12.543L3.717,-19.974L10.062,-19.974L4.182,3.789C3.792,5.185 3.562,6.423 3.562,7.196C3.562,8.666 4.26,9.518 5.573,9.518C6.813,9.518 8.361,8.358 9.909,4.1L12.929,5.185C10.916,11.841 7.431,14.085 3.717,14.085C-0.231,14.085 -2.708,11.376 -2.708,7.353L-2.708,6.963C-5.573,10.913 -9.596,14.165 -14.629,14.165C-21.287,14.165 -26.006,8.978 -26.006,0.85" style="fill:white;fill-rule:nonzero;"/>
    </g>
    <g transform="matrix(4.16667,0,0,4.16667,813.975,758.905)">
        <path d="M0,-21.592C0,-26.549 -3.253,-29.569 -8.052,-29.569C-14.556,-29.569 -19.509,-23.375 -19.509,-15.789C-19.509,-10.835 -16.26,-7.736 -11.614,-7.736C-4.957,-7.736 0,-14.393 0,-21.592M-27.017,10.066C-28.488,8.595 -28.953,7.359 -28.953,5.731C-28.953,3.022 -27.093,1.163 -24.695,1.163C-22.296,1.163 -20.594,3.099 -20.594,5.343C-20.594,6.042 -20.747,6.816 -21.058,7.359C-20.051,7.975 -18.039,8.595 -15.484,8.595C-12.31,8.595 -10.066,7.743 -8.13,5.807C-6.351,4.104 -5.266,1.396 -4.414,-2.241L-2.944,-8.513C-5.809,-4.486 -9.832,-1.932 -14.4,-1.932C-21.908,-1.932 -26.553,-7.274 -26.553,-15.323C-26.553,-26.161 -19.044,-35.527 -8.905,-35.527C-3.175,-35.527 0.231,-31.657 1.39,-27.939L3.482,-35.063L9.752,-35.063L1.778,-0.695C0.773,3.795 -0.621,7.126 -3.099,9.679C-6.042,12.542 -9.91,13.935 -15.33,13.935C-19.971,13.935 -25.004,12.079 -27.017,10.066" style="fill:white;fill-rule:nonzero;"/>
    </g>
    <g transform="matrix(4.16667,0,0,4.16667,885.896,694.415)">
        <path d="M0,-5.496L17.338,-5.496C17.647,-6.425 17.804,-7.434 17.804,-8.362C17.804,-11.844 15.479,-14.399 10.681,-14.399C5.882,-14.399 1.778,-10.761 0,-5.496M-0.93,-0.618L-0.93,0.54C-0.93,5.574 3.096,8.901 9.131,8.901C12.692,8.901 15.944,8.127 20.126,5.883L18.809,12.23C15.327,13.933 12.461,14.553 7.739,14.553C-0.234,14.553 -7.587,9.52 -7.587,0.386C-7.587,-10.916 0.771,-20.049 10.681,-20.049C18.809,-20.049 24.152,-15.404 24.152,-7.588C24.152,-5.496 23.764,-3.175 22.909,-0.618L-0.93,-0.618Z" style="fill:white;fill-rule:nonzero;"/>
    </g>
    <g transform="matrix(4.16667,0,0,4.16667,481.085,852.564)">
        <path d="M0,21.087L3.136,21.087L8.012,-0.001L4.497,-0.001L4.951,-1.89L22.787,-1.89L21.465,3.74L19.386,3.74L20.255,-0.001L10.166,-0.001L8.012,9.334L16.25,9.334L15.834,11.223L7.596,11.223L5.29,21.087L15.381,21.087L16.25,17.345L18.329,17.345L17.043,22.977L-0.453,22.977L0,21.087Z" style="fill:white;fill-rule:nonzero;"/>
    </g>
    <g transform="matrix(4.16667,0,0,4.16667,584.208,940.742)">
        <path d="M0,-12.32L-3.023,-12.32L-2.57,-14.059L2.305,-14.059L1.286,-10.242C2.835,-12.737 4.8,-14.36 6.953,-14.36C9.41,-14.36 10.997,-12.888 11.073,-10.393C12.622,-12.811 14.701,-14.36 16.779,-14.36C19.274,-14.36 20.973,-12.585 20.973,-10.242C20.973,-9.447 20.747,-8.578 20.521,-7.749L18.896,-2.191C18.744,-1.663 18.631,-0.945 18.631,-0.643C18.631,0.112 19.122,0.605 19.803,0.605C20.634,0.605 21.277,-0.151 21.993,-1.89L23.165,-1.512C22.409,0.718 21.277,2.04 19.538,2.04C17.875,2.04 16.666,0.945 16.666,-0.643C16.666,-1.059 16.817,-1.852 16.967,-2.381L18.592,-8.012C18.819,-8.843 18.97,-9.486 18.97,-10.167C18.97,-11.602 18.026,-12.66 16.477,-12.66C14.209,-12.66 11.375,-10.203 10.204,-5.707L8.239,1.814L6.273,1.814L8.805,-8.012C9.032,-8.843 9.183,-9.486 9.183,-10.167C9.183,-11.602 8.201,-12.66 6.651,-12.66C4.422,-12.66 1.399,-10.167 0.303,-5.745L-1.587,1.814L-3.552,1.814L0,-12.32Z" style="fill:white;fill-rule:nonzero;"/>
    </g>
    <g transform="matrix(4.16667,0,0,4.16667,747.633,950.344)">
        <path d="M0,-9.749C0,-12.885 -1.625,-14.889 -4.345,-14.889C-8.125,-14.889 -11.11,-10.431 -11.11,-6.726C-11.11,-3.967 -9.334,-1.965 -6.386,-1.965C-2.645,-1.965 0,-5.819 0,-9.749M-18.442,5.178L-15.986,5.178L-11.223,-14.624L-14.247,-14.624L-13.83,-16.363L-8.956,-16.363L-9.674,-13.302C-8.39,-15.115 -6.5,-16.665 -4.005,-16.665C-0.566,-16.665 2.117,-14.058 2.117,-9.976C2.117,-4.422 -2.003,-0.189 -6.349,-0.189C-8.993,-0.189 -11.148,-1.663 -11.827,-4.005L-13.983,5.178L-10.505,5.178L-10.921,6.916L-18.856,6.916L-18.442,5.178Z" style="fill:white;fill-rule:nonzero;"/>
    </g>
    <g transform="matrix(4.16667,0,0,4.16667,766.205,844.22)">
        <path d="M0,22.522C0,22.106 0.151,21.503 0.264,20.935L5.366,-0.945L2.381,-0.945L2.796,-2.683L7.747,-2.683L2.23,20.935C2.116,21.503 1.964,22.221 1.964,22.522C1.964,23.278 2.456,23.77 3.136,23.77C3.966,23.77 4.61,23.014 5.327,21.275L6.5,21.653C5.744,23.883 4.61,25.205 2.871,25.205C1.208,25.205 0,24.11 0,22.522" style="fill:white;fill-rule:nonzero;"/>
    </g>
    <g transform="matrix(4.16667,0,0,4.16667,856.892,921.373)">
        <path d="M0,-2.948C0,-5.971 -2.04,-7.936 -4.761,-7.936C-8.616,-7.936 -11.639,-4.234 -11.639,-0C-11.639,3.022 -9.599,4.988 -6.877,4.988C-3.023,4.988 0,1.285 0,-2.948M-13.642,-0.038C-13.642,-5.064 -9.749,-9.712 -4.648,-9.712C-0.453,-9.712 2.003,-6.614 2.003,-2.91C2.003,2.116 -1.89,6.764 -6.991,6.764C-11.186,6.764 -13.642,3.665 -13.642,-0.038" style="fill:white;fill-rule:nonzero;"/>
    </g>
    <g transform="matrix(4.16667,0,0,4.16667,852.157,888.774)">
        <path d="M0,19.955C0,19.085 0.643,18.254 1.587,18.254C2.532,18.254 3.099,18.934 3.175,19.991L3.364,19.991C4.271,19.991 6.312,18.556 9.826,14.247L6.991,0.152L4.044,0.152L4.46,-1.586L8.768,-1.586L11.3,12.358C14.323,8.428 17.347,4.158 17.875,1.626C17.119,1.399 16.326,0.758 16.326,-0.264C16.326,-1.094 17.044,-1.888 18.026,-1.888C19.047,-1.888 19.878,-1.132 19.878,0.341C19.878,3.099 17.573,6.803 11.753,14.21C6.991,20.295 4.497,21.843 2.269,21.843C1.135,21.843 0,21.051 0,19.955" style="fill:white;fill-rule:nonzero;"/>
    </g>
    <g transform="matrix(4.16667,0,0,4.16667,948.039,919.954)">
        <path d="M0,-2.267L10.129,-2.267C10.318,-2.833 10.43,-3.476 10.43,-4.08C10.43,-5.857 9.222,-7.596 6.349,-7.596C3.553,-7.596 0.983,-5.328 0,-2.267M-0.378,-0.605C-0.414,-0.264 -0.414,0.076 -0.414,0.416C-0.414,3.704 2.268,5.367 4.952,5.367C6.804,5.367 8.126,4.989 10.166,3.893L9.713,5.934C8.049,6.764 6.691,7.104 4.612,7.104C0.945,7.104 -2.38,4.724 -2.38,0.454C-2.38,-4.912 1.816,-9.371 6.501,-9.371C10.091,-9.371 12.282,-7.103 12.282,-3.741C12.282,-2.759 12.056,-1.738 11.64,-0.605L-0.378,-0.605Z" style="fill:white;fill-rule:nonzero;"/>
    </g>
    <g transform="matrix(4.16667,0,0,4.16667,1021.41,939.801)">
        <path d="M0,-12.094L-3.022,-12.094L-2.57,-13.833L2.305,-13.833L1.248,-9.525C3.364,-12.434 5.14,-14.134 6.614,-14.134C7.861,-14.134 8.54,-13.417 8.54,-12.472C8.54,-11.451 7.709,-10.62 6.765,-10.62C5.896,-10.62 5.291,-11.15 5.103,-11.906C3.817,-11.15 1.058,-8.656 0.152,-4.915L-1.587,2.04L-3.553,2.04L0,-12.094Z" style="fill:white;fill-rule:nonzero;"/>
    </g>
    <g transform="matrix(4.16667,0,0,4.16667,298.785,261.189)">
        <path d="M0,-21.503L-2.646,-21.503L-2.192,-23.393L5.442,-23.393L4.988,-21.503L1.89,-21.503L2.419,-2.003L12.735,-20.18L13.642,-20.18L15.721,-1.965L26,-21.503L22.977,-21.503L23.43,-23.393L31.026,-23.393L30.572,-21.503L28.078,-21.503L15.645,1.89L14.436,1.89L12.244,-15.759L2.041,1.89L0.831,1.89L0,-21.503Z" style="fill:white;fill-rule:nonzero;"/>
    </g>
    <g transform="matrix(4.16667,0,0,4.16667,415.917,238.987)">
        <path d="M0,-2.268L10.128,-2.268C10.317,-2.834 10.43,-3.477 10.43,-4.082C10.43,-5.858 9.221,-7.596 6.349,-7.596C3.552,-7.596 0.982,-5.329 0,-2.268M-0.378,-0.605C-0.416,-0.265 -0.416,0.075 -0.416,0.416C-0.416,3.703 2.268,5.366 4.951,5.366C6.802,5.366 8.125,4.988 10.166,3.892L9.712,5.933C8.049,6.764 6.689,7.104 4.61,7.104C0.945,7.104 -2.38,4.723 -2.38,0.453C-2.38,-4.913 1.814,-9.372 6.5,-9.372C10.09,-9.372 12.282,-7.105 12.282,-3.742C12.282,-2.759 12.055,-1.739 11.639,-0.605L-0.378,-0.605Z" style="fill:white;fill-rule:nonzero;"/>
    </g>
    <g transform="matrix(4.16667,0,0,4.16667,555.095,241.348)">
        <path d="M0,-3.401C0,-6.236 -1.512,-8.163 -4.384,-8.163C-8.201,-8.163 -10.846,-4.195 -10.846,-0.076C-10.846,2.872 -9.41,4.762 -6.689,4.762C-2.57,4.762 0,0.151 0,-3.401M-12.962,-0.038C-12.962,-5.442 -9.032,-9.939 -4.46,-9.939C-1.588,-9.939 0.301,-8.352 0.756,-5.82L1.7,-9.825L3.665,-9.825L0.718,2.268C0.566,2.872 0.453,3.477 0.453,3.779C0.453,4.535 0.944,5.026 1.625,5.026C2.456,5.026 3.099,4.27 3.817,2.532L4.988,2.91C4.232,5.139 3.099,6.462 1.36,6.462C-0.303,6.462 -1.436,5.404 -1.436,3.93L-1.436,3.288C-2.835,5.139 -4.8,6.538 -7.105,6.538C-10.544,6.538 -12.962,4.044 -12.962,-0.038" style="fill:white;fill-rule:nonzero;"/>
    </g>
    <g transform="matrix(4.16667,0,0,4.16667,596.968,258.822)">
        <path d="M0,-12.092L-3.023,-12.092L-2.57,-13.83L2.305,-13.83L1.247,-9.523C3.364,-12.432 5.139,-14.133 6.613,-14.133C7.86,-14.133 8.54,-13.415 8.54,-12.47C8.54,-11.45 7.709,-10.618 6.764,-10.618C5.895,-10.618 5.291,-11.147 5.101,-11.903C3.817,-11.147 1.057,-8.653 0.151,-4.912L-1.587,2.041L-3.553,2.041L0,-12.092Z" style="fill:white;fill-rule:nonzero;"/>
    </g>
    <g transform="matrix(4.16667,0,0,4.16667,639.316,238.987)">
        <path d="M0,-2.268L10.127,-2.268C10.317,-2.834 10.43,-3.477 10.43,-4.082C10.43,-5.858 9.221,-7.596 6.348,-7.596C3.552,-7.596 0.982,-5.329 0,-2.268M-0.379,-0.605C-0.416,-0.265 -0.416,0.075 -0.416,0.416C-0.416,3.703 2.268,5.366 4.951,5.366C6.803,5.366 8.125,4.988 10.166,3.892L9.712,5.933C8.049,6.764 6.69,7.104 4.61,7.104C0.944,7.104 -2.381,4.723 -2.381,0.453C-2.381,-4.913 1.814,-9.372 6.5,-9.372C10.09,-9.372 12.282,-7.105 12.282,-3.742C12.282,-2.759 12.056,-1.739 11.639,-0.605L-0.379,-0.605Z" style="fill:white;fill-rule:nonzero;"/>
    </g>
    <g transform="matrix(4.16667,0,0,4.16667,778.493,241.348)">
        <path d="M0,-3.401C0,-6.236 -1.512,-8.163 -4.383,-8.163C-8.2,-8.163 -10.845,-4.195 -10.845,-0.076C-10.845,2.872 -9.409,4.762 -6.688,4.762C-2.569,4.762 0,0.151 0,-3.401M-12.961,-0.038C-12.961,-5.442 -9.031,-9.939 -4.458,-9.939C-1.586,-9.939 0.304,-8.352 0.756,-5.82L1.701,-9.825L3.665,-9.825L0.718,2.268C0.568,2.872 0.455,3.477 0.455,3.779C0.455,4.535 0.945,5.026 1.625,5.026C2.457,5.026 3.1,4.27 3.818,2.532L4.988,2.91C4.232,5.139 3.1,6.462 1.361,6.462C-0.301,6.462 -1.435,5.404 -1.435,3.93L-1.435,3.288C-2.834,5.139 -4.799,6.538 -7.104,6.538C-10.543,6.538 -12.961,4.044 -12.961,-0.038" style="fill:white;fill-rule:nonzero;"/>
    </g>
</svg>
